<svg width="32" height="32" viewBox="0 0 32 32" fill="none" xmlns="http://www.w3.org/2000/svg">
<circle cx="16" cy="16" r="16" fill="#EDEBFC" fill-opacity="0.5"/>
<mask id="mask0_6063_1800" style="mask-type:alpha" maskUnits="userSpaceOnUse" x="6" y="6" width="20" height="20">
<rect x="6" y="6" width="20" height="20" fill="#D9D9D9"/>
</mask>
<g mask="url(#mask0_6063_1800)">
<path d="M19.8429 16.625H10.375C10.1976 16.625 10.0492 16.5652 9.92958 16.4454C9.80986 16.3259 9.75 16.1774 9.75 16C9.75 15.8227 9.80986 15.6742 9.92958 15.5546C10.0492 15.4349 10.1976 15.375 10.375 15.375H19.8429L17.0994 12.6315C16.9755 12.5075 16.9143 12.3624 16.9158 12.1963C16.9175 12.0302 16.9787 11.8825 17.0994 11.7532C17.2287 11.624 17.3772 11.5572 17.5448 11.5529C17.7126 11.5486 17.8611 11.6111 17.9904 11.7404L21.7227 15.4727C21.8008 15.5508 21.8558 15.6331 21.8877 15.7196C21.9198 15.8061 21.9358 15.8996 21.9358 16C21.9358 16.1004 21.9198 16.1939 21.8877 16.2804C21.8558 16.367 21.8008 16.4493 21.7227 16.5273L17.9904 20.2596C17.8664 20.3835 17.7192 20.4447 17.549 20.4432C17.3785 20.4415 17.2287 20.3761 17.0994 20.2469C16.9787 20.1176 16.9162 19.9712 16.9119 19.8077C16.9076 19.6443 16.9701 19.4979 17.0994 19.3686L19.8429 16.625Z" fill="#1F2937"/>
</g>
</svg>
