<svg width="9" height="12" viewBox="0 0 9 12" fill="none" xmlns="http://www.w3.org/2000/svg">
<path d="M3.23885 9.92806L6.68885 5.79473H4.02218L4.50551 2.01139L1.42218 6.46139H3.73885L3.23885 9.92806ZM2.59018 7.46139H0.562013C0.338013 7.46139 0.173901 7.36223 0.0696793 7.16389C-0.0346541 6.96567 -0.0218208 6.77467 0.108179 6.59089L4.47601 0.289727C4.56579 0.164061 4.68035 0.0781157 4.81968 0.0318934C4.9589 -0.0142177 5.10373 -0.0103286 5.25418 0.0435603C5.40462 0.0973381 5.51468 0.189394 5.58435 0.319727C5.65401 0.45006 5.67985 0.59045 5.66185 0.740894L5.16068 4.79473H7.64785C7.8854 4.79473 8.0529 4.90117 8.15035 5.11406C8.24779 5.32684 8.21918 5.52512 8.06451 5.70889L3.23501 11.4934C3.13846 11.608 3.02051 11.6821 2.88118 11.7159C2.74185 11.7496 2.60596 11.7361 2.47351 11.6754C2.34107 11.6147 2.23829 11.522 2.16518 11.3972C2.09207 11.2724 2.06451 11.1348 2.08251 10.9844L2.59018 7.46139Z" fill="white"/>
</svg>
