<svg width="10" height="11" viewBox="0 0 10 11" fill="none" xmlns="http://www.w3.org/2000/svg">
<path d="M0 9.9615V4.064C0 3.87322 0.0426665 3.6925 0.128 3.52183C0.213444 3.35106 0.331444 3.21044 0.482 3.1L4.277 0.241C4.48756 0.0803337 4.72822 0 4.999 0C5.26978 0 5.51111 0.0803337 5.723 0.241L9.518 3.1C9.66856 3.21044 9.78656 3.35106 9.872 3.52183C9.95733 3.6925 10 3.87322 10 4.064V9.9615C10 10.2342 9.9015 10.469 9.7045 10.666C9.5075 10.863 9.27267 10.9615 9 10.9615H6.87183C6.70106 10.9615 6.55794 10.9037 6.4425 10.7882C6.32694 10.6727 6.26917 10.5296 6.26917 10.3588V7.1025C6.26917 6.93183 6.21144 6.78872 6.096 6.67317C5.98056 6.55772 5.83744 6.5 5.66667 6.5H4.33333C4.16256 6.5 4.01944 6.55772 3.904 6.67317C3.78856 6.78872 3.73083 6.93183 3.73083 7.1025V10.3588C3.73083 10.5296 3.67306 10.6727 3.5575 10.7882C3.44206 10.9037 3.29894 10.9615 3.12817 10.9615H1C0.727333 10.9615 0.4925 10.863 0.2955 10.666C0.0984999 10.469 0 10.2342 0 9.9615Z" fill="#4B5563"/>
</svg>
