<svg width="16" height="16" viewBox="0 0 16 16" fill="none" xmlns="http://www.w3.org/2000/svg">
<path d="M8.00002 7.1665C8.27616 7.1665 8.50002 7.39036 8.50002 7.6665V10.9998C8.50002 11.276 8.27616 11.4998 8.00002 11.4998C7.72388 11.4998 7.50002 11.276 7.50002 10.9998V7.6665C7.50002 7.39036 7.72388 7.1665 8.00002 7.1665Z" fill="#18164C"/>
<path d="M8.00002 5.99984C8.36821 5.99984 8.66669 5.70136 8.66669 5.33317C8.66669 4.96498 8.36821 4.6665 8.00002 4.6665C7.63183 4.6665 7.33335 4.96498 7.33335 5.33317C7.33335 5.70136 7.63183 5.99984 8.00002 5.99984Z" fill="#18164C"/>
<path fill-rule="evenodd" clip-rule="evenodd" d="M2.16669 7.99984C2.16669 4.77818 4.77836 2.1665 8.00002 2.1665C11.2217 2.1665 13.8334 4.77818 13.8334 7.99984C13.8334 11.2215 11.2217 13.8332 8.00002 13.8332C4.77836 13.8332 2.16669 11.2215 2.16669 7.99984ZM8.00002 3.1665C5.33064 3.1665 3.16669 5.33046 3.16669 7.99984C3.16669 10.6692 5.33064 12.8332 8.00002 12.8332C10.6694 12.8332 12.8334 10.6692 12.8334 7.99984C12.8334 5.33046 10.6694 3.1665 8.00002 3.1665Z" fill="#18164C"/>
</svg>
