<svg width="80" height="15" viewBox="0 0 80 15" fill="none" xmlns="http://www.w3.org/2000/svg">
<path d="M0 0.108887L6.03033 14.667L8.77139 7.58761L11.5889 14.667L17.6193 0.108887H14.3555L11.5889 6.84942L8.79689 0.108887L6.01758 6.84942L3.23828 0.108887H0Z" fill="#18164C"/>
<path d="M18.9197 0.0864258V14.3783H27.9716V11.5344H21.9285V8.66638H26.4544V5.81043H21.9285V2.94238H27.9588V0.0864258H18.9197Z" fill="#18164C"/>
<path d="M36.8194 0C34.7158 0 32.9182 0.713988 31.452 2.12986C29.9604 3.55784 29.2209 5.26415 29.2209 7.24879C29.2209 9.25764 29.9604 10.9639 31.452 12.3677C32.9182 13.7715 34.7158 14.4734 36.8194 14.4734C38.9103 14.4734 40.7079 13.7715 42.1995 12.3677C43.6784 10.9639 44.5964 9.03981 44.3924 6.37748H36.6792V9.11242H40.9629C40.2999 10.4436 38.7955 11.6053 36.8449 11.6053C35.5827 11.6053 34.4991 11.1818 33.6194 10.3347C32.727 9.48757 32.2807 8.45894 32.2807 7.27299C32.2807 6.07495 32.727 5.05842 33.6194 4.21132C34.4991 3.35211 35.57 2.92856 36.8449 2.92856C38.0688 2.92856 39.1525 3.35211 40.0704 4.21132L42.225 2.16617C40.9884 0.992322 39.127 0 36.8194 0Z" fill="#18164C"/>
<path d="M45.7051 0.108887V14.3523H54.7569V11.5085H48.7266V0.108887H45.7051Z" fill="#18164C"/>
<path d="M62.1901 0C60.0992 0 58.3016 0.713988 56.81 2.12986C55.3183 3.55784 54.5789 5.26415 54.5789 7.24879C54.5789 9.24554 55.3183 10.9397 56.81 12.3556C58.2888 13.7473 60.0865 14.4613 62.1901 14.4613C64.2809 14.4613 66.0785 13.7594 67.5702 12.3556C69.0618 10.9518 69.814 9.24554 69.814 7.24879C69.814 5.26415 69.0618 3.55784 67.5702 2.12986C66.0658 0.713988 64.2682 0 62.1901 0ZM62.1773 2.89226C63.4395 2.89226 64.5104 3.31581 65.4028 4.16291C66.308 5.02212 66.7542 6.03864 66.7542 7.23669C66.7542 8.43474 66.308 9.45126 65.4028 10.2984C64.5104 11.1334 63.4267 11.5569 62.1773 11.5569C60.9152 11.5569 59.8442 11.1334 58.9518 10.2984C58.0594 9.45126 57.6131 8.42264 57.6131 7.23669C57.6131 6.05074 58.0594 5.02212 58.9518 4.17501C59.8315 3.31581 60.9152 2.89226 62.1773 2.89226Z" fill="#18164C"/>
<path d="M69.5967 0.108887V2.94063H73.2939V14.3402H76.3155V2.94063H79.9999V0.108887H69.5967Z" fill="#18164C"/>
</svg>
