<svg width="28" height="26" viewBox="0 0 28 26" fill="none" xmlns="http://www.w3.org/2000/svg">
<path d="M7.35427 20.8086L16.8938 8.21506L23.0563 5.71243L22.724 11.6987C20.0111 15.2503 14.3717 22.6537 13.7756 23.434L9.67041 23.434L7.35427 20.8086Z" fill="#473AE0"/>
<path d="M5.29274 19.5025L14.8323 6.90891L20.9948 4.40628L20.6625 10.3926C17.9496 13.9441 11.4246 22.6535 10.8285 23.4338L6.72334 23.4338L5.29274 19.5025Z" fill="#F95B17"/>
<path d="M3.3787 17.1367L12.5203 5.16904L15.3689 4.22486L18.2174 3.28069L18.0513 6.27385L17.8851 9.267L8.91545 21.0095L4.81025 20.9244L3.3787 17.1367Z" fill="white"/>
<path d="M12.5203 5.16904L3.3787 17.1367L4.81025 20.9244M12.5203 5.16904L13.9449 8.78222M12.5203 5.16904L15.3689 4.22486M17.8851 9.267C15.1722 12.8185 9.51151 20.2292 8.91545 21.0095L4.81025 20.9244M17.8851 9.267L13.9449 8.78222M17.8851 9.267L18.0513 6.27385M13.9449 8.78222L4.81025 20.9244M15.3689 4.22486L18.2174 3.28069L18.0513 6.27385M15.3689 4.22486C15.3029 5.45595 16.0191 6.78329 18.0513 6.27385" stroke="#18164C" stroke-width="0.96"/>
</svg>
