<svg width="48" height="48" viewBox="0 0 48 48" fill="none" xmlns="http://www.w3.org/2000/svg">
<g clip-path="url(#clip0_6063_1970)">
<path d="M25.7508 23.7793H5.90588V44.4052H25.7508V36.32L18.4419 34.9266L25.7508 23.7793Z" fill="#18164C"/>
<path d="M29.5839 20.7524H8.91023V41.3783H29.5839V33.2932L21.9698 31.8998L29.5839 20.7524Z" fill="#F95B17"/>
<mask id="path-3-inside-1_6063_1970" fill="white">
<path d="M21.6959 12.9482C19.3964 12.9484 17.5321 14.7081 17.5319 16.8789C17.5319 17.6741 17.6913 18.4242 17.9469 19.1162H11.944V24.5684C11.3933 24.4263 10.8058 24.3428 10.1842 24.3428C7.97884 24.3428 6.1911 26.1784 6.19104 28.4424C6.19104 30.7064 7.9788 32.542 10.1842 32.542C10.7993 32.542 11.3879 32.4513 11.944 32.2969V38.3164H31.4479V29.9199C30.5834 30.6141 29.3817 31.293 27.9801 31.293C26.4468 31.2927 25.2037 30.0165 25.2037 28.4424C25.2038 26.8684 26.4469 25.592 27.9801 25.5918C29.4259 25.5918 30.6062 26.2383 31.4479 26.9141V19.1162H25.4772C25.7142 18.4329 25.86 17.6847 25.86 16.8789C25.8597 14.708 23.9955 12.9482 21.6959 12.9482Z"/>
</mask>
<path d="M21.6959 12.9482C19.3964 12.9484 17.5321 14.7081 17.5319 16.8789C17.5319 17.6741 17.6913 18.4242 17.9469 19.1162H11.944V24.5684C11.3933 24.4263 10.8058 24.3428 10.1842 24.3428C7.97884 24.3428 6.1911 26.1784 6.19104 28.4424C6.19104 30.7064 7.9788 32.542 10.1842 32.542C10.7993 32.542 11.3879 32.4513 11.944 32.2969V38.3164H31.4479V29.9199C30.5834 30.6141 29.3817 31.293 27.9801 31.293C26.4468 31.2927 25.2037 30.0165 25.2037 28.4424C25.2038 26.8684 26.4469 25.592 27.9801 25.5918C29.4259 25.5918 30.6062 26.2383 31.4479 26.9141V19.1162H25.4772C25.7142 18.4329 25.86 17.6847 25.86 16.8789C25.8597 14.708 23.9955 12.9482 21.6959 12.9482Z" fill="white"/>
<path d="M21.6959 12.9482L21.6958 11.5082H21.6959V12.9482ZM17.5319 16.8789H16.0919V16.8787L17.5319 16.8789ZM17.9469 19.1162L19.2977 18.6172L20.014 20.5562H17.9469V19.1162ZM11.944 19.1162H10.504V17.6762H11.944V19.1162ZM11.944 24.5684H13.384V26.4269L11.5843 25.9627L11.944 24.5684ZM10.1842 24.3428V22.9028H10.1843L10.1842 24.3428ZM6.19104 28.4424H4.75104V28.4423L6.19104 28.4424ZM10.1842 32.542L10.1843 33.982H10.1842V32.542ZM11.944 32.2969L11.5587 30.9094L13.384 30.4025V32.2969H11.944ZM11.944 38.3164V39.7564H10.504V38.3164H11.944ZM31.4479 38.3164H32.8879V39.7564H31.4479V38.3164ZM31.4479 29.9199L30.5462 28.7971L32.8879 26.9167V29.9199H31.4479ZM27.9801 31.293V32.733H27.9799L27.9801 31.293ZM25.2037 28.4424H23.7637V28.4423L25.2037 28.4424ZM27.9801 25.5918L27.9799 24.1518H27.9801V25.5918ZM31.4479 26.9141H32.8879V29.917L30.5463 28.0369L31.4479 26.9141ZM31.4479 19.1162V17.6762H32.8879V19.1162H31.4479ZM25.4772 19.1162V20.5562H23.4534L24.1167 18.6442L25.4772 19.1162ZM25.86 16.8789L27.3 16.8787V16.8789H25.86ZM21.6959 12.9482L21.696 14.3882C20.1124 14.3883 18.972 15.5805 18.9719 16.8791L17.5319 16.8789L16.0919 16.8787C16.0922 13.8357 18.6804 11.5084 21.6958 11.5082L21.6959 12.9482ZM17.5319 16.8789H18.9719C18.9719 17.4793 19.0919 18.0603 19.2977 18.6172L17.9469 19.1162L16.5961 19.6152C16.2906 18.7882 16.0919 17.8688 16.0919 16.8789H17.5319ZM17.9469 19.1162V20.5562H11.944V19.1162V17.6762H17.9469V19.1162ZM11.944 19.1162H13.384V24.5684H11.944H10.504V19.1162H11.944ZM11.944 24.5684L11.5843 25.9627C11.1421 25.8487 10.6755 25.7828 10.1841 25.7828L10.1842 24.3428L10.1843 22.9028C10.9361 22.9028 11.6444 23.004 12.3036 23.174L11.944 24.5684ZM10.1842 24.3428V25.7828C8.80969 25.7828 7.63108 26.9377 7.63104 28.4424L6.19104 28.4424L4.75104 28.4423C4.75112 25.4192 7.14799 22.9028 10.1842 22.9028V24.3428ZM6.19104 28.4424H7.63104C7.63104 29.9471 8.80961 31.102 10.1842 31.102V32.542V33.982C7.14799 33.982 4.75104 31.4657 4.75104 28.4424H6.19104ZM10.1842 32.542L10.1841 31.102C10.6567 31.102 11.1154 31.0325 11.5587 30.9094L11.944 32.2969L12.3293 33.6844C11.6603 33.8701 10.942 33.982 10.1843 33.982L10.1842 32.542ZM11.944 32.2969H13.384V38.3164H11.944H10.504V32.2969H11.944ZM11.944 38.3164V36.8764H31.4479V38.3164V39.7564H11.944V38.3164ZM31.4479 38.3164H30.0079V29.9199H31.4479H32.8879V38.3164H31.4479ZM31.4479 29.9199L32.3495 31.0427C31.3624 31.8354 29.847 32.733 27.9801 32.733V31.293V29.853C28.9164 29.853 29.8044 29.3929 30.5462 28.7971L31.4479 29.9199ZM27.9801 31.293L27.9799 32.733C25.616 32.7326 23.7637 30.7758 23.7637 28.4424H25.2037H26.6437C26.6437 29.2571 27.2776 29.8529 27.9803 29.853L27.9801 31.293ZM25.2037 28.4424L23.7637 28.4423C23.7639 26.1091 25.616 24.1522 27.9799 24.1518L27.9801 25.5918L27.9803 27.0318C27.2777 27.0319 26.6438 27.6277 26.6437 28.4425L25.2037 28.4424ZM27.9801 25.5918V24.1518C29.8694 24.1518 31.3598 24.9966 32.3494 25.7912L31.4479 26.9141L30.5463 28.0369C29.8525 27.4799 28.9824 27.0318 27.9801 27.0318V25.5918ZM31.4479 26.9141H30.0079V19.1162H31.4479H32.8879V26.9141H31.4479ZM31.4479 19.1162V20.5562H25.4772V19.1162V17.6762H31.4479V19.1162ZM25.4772 19.1162L24.1167 18.6442C24.3065 18.0971 24.42 17.5084 24.42 16.8789H25.86H27.3C27.3 17.8611 27.1219 18.7687 26.8376 19.5882L25.4772 19.1162ZM25.86 16.8789L24.42 16.8791C24.4198 15.5804 23.2795 14.3882 21.6959 14.3882V12.9482V11.5082C24.7116 11.5082 27.2996 13.8357 27.3 16.8787L25.86 16.8789Z" fill="#18164C" mask="url(#path-3-inside-1_6063_1970)"/>
<path d="M34.6686 20.2483C37.3013 19.608 39.9343 18.9701 42.5794 18.3874" stroke="url(#paint0_linear_6063_1970)" stroke-width="1.44" stroke-linecap="square"/>
<path d="M33.135 15.6198L36.3411 9.45986" stroke="url(#paint1_linear_6063_1970)" stroke-width="1.44" stroke-linecap="square"/>
<path d="M28.7943 14.9809C28.7081 12.2728 28.6244 9.56496 28.5971 6.8565" stroke="url(#paint2_linear_6063_1970)" stroke-width="1.44" stroke-linecap="square"/>
</g>
<defs>
<linearGradient id="paint0_linear_6063_1970" x1="43.078" y1="18.2989" x2="34.789" y2="20.2802" gradientUnits="userSpaceOnUse">
<stop stop-color="white" stop-opacity="0"/>
<stop offset="1" stop-color="#18164C"/>
</linearGradient>
<linearGradient id="paint1_linear_6063_1970" x1="40.0962" y1="7.32383" x2="32.8896" y2="17.1403" gradientUnits="userSpaceOnUse">
<stop offset="0.21875" stop-color="white" stop-opacity="0"/>
<stop offset="1" stop-color="#18164C"/>
</linearGradient>
<linearGradient id="paint2_linear_6063_1970" x1="28.6129" y1="6.35039" x2="28.8502" y2="14.8696" gradientUnits="userSpaceOnUse">
<stop stop-color="white" stop-opacity="0"/>
<stop offset="1" stop-color="#18164C"/>
</linearGradient>
<clipPath id="clip0_6063_1970">
<rect width="48" height="48" fill="white"/>
</clipPath>
</defs>
</svg>
