<svg width="12" height="13" viewBox="0 0 12 13" fill="none" xmlns="http://www.w3.org/2000/svg">
<path d="M5.26052 12.6667C5.03319 12.6667 4.83685 12.5912 4.67152 12.4403C4.50608 12.2896 4.40541 12.1039 4.36952 11.8833L4.20669 10.6358C4.02813 10.5761 3.84502 10.4923 3.65735 10.3847C3.4698 10.2769 3.30208 10.1615 3.15419 10.0385L1.99902 10.5295C1.78958 10.6218 1.57913 10.6308 1.36769 10.5563C1.15613 10.482 0.991797 10.347 0.874686 10.1513L0.123353 8.84867C0.00624176 8.653 -0.0274805 8.44594 0.0221862 8.2275C0.0717418 8.00917 0.185409 7.82906 0.363186 7.68717L1.36185 6.93717C1.34652 6.83806 1.33563 6.7385 1.32919 6.6385C1.32274 6.5385 1.31952 6.43889 1.31952 6.33967C1.31952 6.24489 1.32274 6.14856 1.32919 6.05067C1.33563 5.95278 1.34652 5.84572 1.36185 5.7295L0.363186 4.9795C0.185409 4.83761 0.0727974 4.65639 0.0253529 4.43583C-0.0220915 4.21539 0.0127417 4.00728 0.129853 3.8115L0.874686 2.52817C0.991797 2.33672 1.15613 2.20278 1.36769 2.12633C1.57913 2.04978 1.78958 2.05767 1.99902 2.15L3.14769 2.63467C3.30846 2.50733 3.48008 2.39089 3.66252 2.28533C3.84496 2.17978 4.02424 2.09494 4.20035 2.03083L4.36952 0.783333C4.40541 0.562778 4.50608 0.377111 4.67152 0.226334C4.83685 0.0754447 5.03319 0 5.26052 0H6.73752C6.96485 0 7.16119 0.0754447 7.32652 0.226334C7.49196 0.377111 7.59263 0.562778 7.62852 0.783333L7.79135 2.03717C7.99135 2.10983 8.1723 2.19467 8.33419 2.29167C8.49619 2.38867 8.65969 2.503 8.82469 2.63467L10.0055 2.15C10.2149 2.05767 10.4253 2.04978 10.6369 2.12633C10.8484 2.20278 11.0127 2.33672 11.1297 2.52817L11.8747 3.818C11.9918 4.01367 12.0255 4.22072 11.9759 4.43917C11.9263 4.6575 11.8126 4.83761 11.6349 4.9795L10.6105 5.74867C10.6344 5.85633 10.6475 5.957 10.6497 6.05067C10.6518 6.14422 10.6529 6.23844 10.6529 6.33333C10.6529 6.42389 10.6507 6.516 10.6464 6.60967C10.6421 6.70322 10.6268 6.81028 10.6004 6.93083L11.6054 7.68717C11.7831 7.82906 11.8979 8.00917 11.9497 8.2275C12.0014 8.44594 11.9686 8.653 11.8515 8.84867L11.0964 10.1448C10.9794 10.3406 10.814 10.4757 10.6004 10.55C10.3867 10.6243 10.1751 10.6153 9.96569 10.523L8.82469 10.032C8.65969 10.1637 8.4913 10.2801 8.31952 10.3813C8.14774 10.4827 7.97169 10.5654 7.79135 10.6295L7.62852 11.8833C7.59263 12.1039 7.49196 12.2896 7.32652 12.4403C7.16119 12.5912 6.96485 12.6667 6.73752 12.6667H5.26052ZM6.00669 8.33333C6.56135 8.33333 7.03335 8.13867 7.42269 7.74933C7.81202 7.36 8.00669 6.888 8.00669 6.33333C8.00669 5.77867 7.81202 5.30667 7.42269 4.91733C7.03335 4.528 6.56135 4.33333 6.00669 4.33333C5.44513 4.33333 4.97141 4.528 4.58552 4.91733C4.19963 5.30667 4.00669 5.77867 4.00669 6.33333C4.00669 6.888 4.19963 7.36 4.58552 7.74933C4.97141 8.13867 5.44513 8.33333 6.00669 8.33333Z" fill="#4B5563"/>
</svg>
