<svg width="48" height="48" viewBox="0 0 48 48" fill="none" xmlns="http://www.w3.org/2000/svg">
<g clip-path="url(#clip0_6063_1981)">
<path d="M48 23.77L48 39.5778L8.36068 39.5778L8.36068 23.77L48 23.77Z" fill="#18164C"/>
<path d="M44.6105 19.6919L44.6105 35.4997L4.97121 35.4997L4.97121 19.6919L44.6105 19.6919Z" fill="#473AE0"/>
<path d="M39.8402 31.355L1.5824 31.355L1.5824 16.9282L39.8402 16.9282L39.8402 31.355Z" fill="white" stroke="#18164C" stroke-width="1.38119"/>
<path d="M10.8496 27.7827L5.3125 27.7827L5.3125 20.8569L10.8496 20.8569L10.8496 27.7827Z" fill="#18164C" stroke="#18164C" stroke-width="1.38119"/>
<path d="M19.3264 27.7827L13.7893 27.7827L13.7893 20.8569L19.3264 20.8569L19.3264 27.7827Z" fill="#18164C" stroke="#18164C" stroke-width="1.38119"/>
<path d="M16.3547 23.4043C16.2184 23.5111 15.9496 23.5645 15.5481 23.5645V22.8297C15.8317 22.8297 16.0638 22.7726 16.2442 22.6584C16.4284 22.5443 16.5205 22.3748 16.5205 22.1502H17.2939V25.9678H16.3547V23.4043Z" fill="white"/>
<path d="M27.8033 27.7827L22.2662 27.7827L22.2662 20.8569L27.8033 20.8569L27.8033 27.7827Z" fill="#18164C" stroke="#18164C" stroke-width="1.38119"/>
<path d="M23.5194 25.9678C23.5194 25.71 23.5636 25.489 23.652 25.3048C23.7441 25.117 23.8711 24.9475 24.0332 24.7965C24.1989 24.6455 24.4475 24.4466 24.779 24.1999C25.0258 24.0157 25.2063 23.8573 25.3204 23.7247C25.4383 23.5921 25.4972 23.4466 25.4972 23.2883C25.4972 23.1373 25.4604 23.0212 25.3867 22.9402C25.3131 22.8592 25.2026 22.8187 25.0553 22.8187C24.8674 22.8187 24.7238 22.8757 24.6243 22.9899C24.5286 23.1041 24.4807 23.2883 24.4807 23.5424H23.5746C23.5746 23.0783 23.6999 22.7155 23.9503 22.454C24.2044 22.1925 24.582 22.0618 25.0829 22.0618C25.4991 22.0618 25.8324 22.1649 26.0829 22.3712C26.3333 22.5774 26.4585 22.861 26.4585 23.222C26.4585 23.454 26.4033 23.6658 26.2928 23.8573C26.186 24.0452 26.0552 24.2091 25.9005 24.349C25.7459 24.489 25.5506 24.6437 25.3149 24.8131C25.0976 24.9715 24.9392 25.1004 24.8398 25.1998V25.2109H26.4585V25.9678H23.5194Z" fill="white"/>
<path d="M36.2802 27.7827L30.7431 27.7827L30.7431 20.8569L36.2802 20.8569L36.2802 27.7827Z" fill="#18164C" stroke="#18164C" stroke-width="1.38119"/>
<path d="M33.5335 26.0562C33.0215 26.0562 32.6256 25.9309 32.3457 25.6805C32.0657 25.43 31.9258 25.0764 31.9258 24.6197H32.8318C32.8318 24.8481 32.8834 25.0194 32.9865 25.1335C33.0933 25.244 33.2646 25.2993 33.5003 25.2993C33.6992 25.2993 33.8429 25.2606 33.9313 25.1833C34.0233 25.1022 34.0694 24.9862 34.0694 24.8352C34.0694 24.6584 34.0123 24.5313 33.8981 24.454C33.7839 24.373 33.6145 24.3324 33.3898 24.3324H33.1965V23.686H33.3677C33.5445 23.686 33.6863 23.6474 33.7931 23.57C33.9036 23.489 33.9589 23.3711 33.9589 23.2164C33.9589 23.0875 33.9184 22.9899 33.8373 22.9236C33.76 22.8537 33.644 22.8187 33.4893 22.8187C33.3272 22.8187 33.1946 22.8592 33.0915 22.9402C32.9921 23.0212 32.9423 23.1483 32.9423 23.3214H32.0363C32.0363 23.0783 32.0952 22.861 32.2131 22.6695C32.3346 22.478 32.5059 22.3288 32.7269 22.222C32.9515 22.1152 33.213 22.0618 33.5114 22.0618C33.7729 22.0618 34.0105 22.1041 34.2241 22.1888C34.4377 22.2699 34.6071 22.3896 34.7324 22.5479C34.8576 22.7063 34.9202 22.8942 34.9202 23.1115C34.9202 23.4761 34.736 23.7542 34.3677 23.9457V23.9568C34.8097 24.0967 35.0307 24.4024 35.0307 24.8739C35.0307 25.2532 34.8963 25.5461 34.6274 25.7523C34.3622 25.9549 33.9976 26.0562 33.5335 26.0562Z" fill="white"/>
</g>
<defs>
<clipPath id="clip0_6063_1981">
<rect width="48" height="48" fill="white"/>
</clipPath>
</defs>
</svg>
